<svg width="43" height="31" viewBox="0 0 43 31" fill="none" xmlns="http://www.w3.org/2000/svg">
<path fill-rule="evenodd" clip-rule="evenodd" d="M18.2356 0.0100622C18.2254 0.0197884 17.8381 0.0354149 17.375 0.0447953C15.4865 0.0829626 13.3347 0.202466 11.6877 0.36062C11.1678 0.410541 10.6677 0.464957 10.5341 0.486138C10.494 0.4925 10.3738 0.509394 10.267 0.523683C8.66571 0.737913 7.61261 1.03535 7.19562 1.39113C6.94945 1.60117 6.67833 2.00633 6.47029 2.4751C6.08498 3.34333 5.89843 3.97238 5.40873 6.05477C5.10138 7.36184 5.02193 7.69235 4.95854 7.92796C4.82676 8.41778 4.75686 8.42937 4.53663 7.99798C4.37279 7.67713 4.2985 7.60223 3.99826 7.45509C3.67816 7.29823 3.15414 7.16266 2.50725 7.06939C2.40707 7.05493 2.26589 7.03334 2.19354 7.02142C1.97554 6.98549 0.895664 6.99427 0.697021 7.03359C0.314136 7.1094 0.201226 7.17464 0.126422 7.36327C0.0855465 7.46634 0.077386 7.52304 0.0891167 7.62203C0.0973985 7.69175 0.114448 7.89918 0.127029 8.08298C0.157776 8.53232 0.183885 8.66045 0.326789 9.06252C0.435765 9.36915 0.596788 9.64701 0.900546 10.0526C1.06699 10.2748 1.48943 10.6831 1.63584 10.7632C1.88611 10.9002 2.2152 10.9639 2.67321 10.9639C2.94085 10.964 3.01901 10.9706 3.01128 10.9928C2.99006 11.0537 2.77521 11.1494 2.50725 11.2172C2.1786 11.3004 1.84662 11.4473 1.65026 11.5966C1.48215 11.7245 1.2496 12.0149 1.12404 12.254C0.803617 12.864 0.501413 13.8861 0.367422 14.813C0.353675 14.908 0.331963 15.0532 0.319188 15.1356C0.306388 15.218 0.284676 15.384 0.270905 15.5044C0.257134 15.6248 0.235349 15.8115 0.222501 15.9192C0.156222 16.4745 0.0773375 17.5864 0.027039 18.6735C-0.00868718 19.446 -0.00912435 22.2915 0.0264076 22.8221C0.0617209 23.3492 0.0963299 23.8099 0.125984 24.1473C0.138808 24.2931 0.160642 24.542 0.174534 24.7005C0.188451 24.8589 0.210212 25.0871 0.222938 25.2075C0.283389 25.7793 0.301167 25.9487 0.321058 26.141C0.332837 26.2551 0.354744 26.4521 0.369729 26.5789C0.384714 26.7056 0.406694 26.8923 0.41857 26.9937C0.430446 27.0951 0.451746 27.2766 0.465906 27.3971C0.480065 27.5175 0.503259 27.6938 0.517443 27.7889C0.531626 27.884 0.552027 28.3144 0.562835 28.7454C0.583163 29.5582 0.605507 29.756 0.711447 30.0616C0.782681 30.267 0.880194 30.3992 1.15614 30.6642C1.43552 30.9324 1.48212 30.9542 1.83936 30.9836C2.34813 31.0255 8.3186 30.9797 8.89474 30.9295C9.14917 30.9073 9.24333 30.8713 9.345 30.7571C9.53764 30.5408 9.60948 30.1951 9.64414 29.3174C9.66156 28.8765 9.67681 28.8331 9.84366 28.7499C9.93408 28.7049 10.1054 28.706 10.8498 28.7565C11.0369 28.7692 11.3702 28.7904 11.5906 28.8035C11.811 28.8167 12.1443 28.8371 12.3314 28.8491C12.5184 28.861 12.8517 28.8815 13.0721 28.8947C13.2925 28.9078 13.6259 28.9288 13.8129 28.9413C13.9999 28.9538 14.3332 28.9748 14.5536 28.9879C14.774 29.001 15.1238 29.0218 15.3308 29.0341C15.5378 29.0465 15.8548 29.0666 16.0351 29.0789C16.2155 29.0912 16.5379 29.1123 16.7516 29.1258C16.9653 29.1393 17.2932 29.1601 17.4802 29.1719C17.6672 29.1838 18.0006 29.2042 18.221 29.2173C18.5942 29.2396 18.8461 29.2552 19.7146 29.3098C19.9016 29.3215 20.235 29.3436 20.4554 29.3587C20.9704 29.3941 22.3187 29.3942 22.8355 29.3589C23.0559 29.3438 23.4002 29.3211 23.6005 29.3085C23.8009 29.2959 24.1178 29.2758 24.3049 29.2639C24.4919 29.252 24.8307 29.2313 25.0578 29.2179C25.2848 29.2044 25.6236 29.1838 25.8107 29.1719C25.9977 29.1601 26.3255 29.1393 26.5393 29.1258C26.753 29.1123 27.0754 29.0912 27.2557 29.0789C27.4361 29.0666 27.753 29.0465 27.9601 29.0341C28.1671 29.0218 28.5168 29.001 28.7372 28.9879C28.9576 28.9748 29.291 28.9538 29.478 28.9413C29.665 28.9288 29.9983 28.9078 30.2187 28.8947C30.4391 28.8815 30.778 28.8608 30.9716 28.8486C31.1653 28.8364 31.4932 28.8165 31.7003 28.8043C31.9073 28.7921 32.2461 28.7699 32.4532 28.7549C32.6602 28.7398 32.9204 28.7264 33.0314 28.7249C33.2191 28.7225 33.2363 28.7263 33.2784 28.7792C33.3414 28.8585 33.3518 28.9276 33.3518 29.2668C33.3518 29.6723 33.4409 30.1304 33.5638 30.3571C33.6203 30.4614 34.0093 30.8319 34.1047 30.8722C34.1514 30.8921 34.288 30.9176 34.4083 30.929C34.9895 30.9842 40.9885 31.0257 41.4879 30.978C41.7946 30.9487 41.8766 30.9174 42.0314 30.7706C42.3205 30.4967 42.4148 30.0359 42.423 28.8588C42.4252 28.5283 42.4343 28.2467 42.4432 28.233C42.4581 28.2101 42.4793 28.0589 42.5327 27.593C42.5557 27.3926 42.5945 27.0607 42.631 26.7517C42.6437 26.644 42.665 26.4417 42.6783 26.3023C42.6917 26.1629 42.7133 25.9451 42.7266 25.8183C42.7493 25.6 42.7719 25.3696 42.8249 24.8157C43.0223 22.7512 43.0498 20.962 42.9225 18.4776C42.7888 15.8706 42.4754 14.0008 42.005 13.0037C41.6384 12.2266 41.4737 11.9636 41.1854 11.695C40.9651 11.4898 40.8034 11.3956 40.5252 11.3103C40.4068 11.2741 40.1843 11.2061 40.0307 11.1592C39.5681 11.018 39.2963 10.8654 39.0204 10.592C38.7994 10.3729 38.7356 10.2142 38.8429 10.1505C38.9211 10.104 39.0052 10.1572 39.2192 10.3887C39.5276 10.7223 39.6963 10.8112 40.2233 10.9177C40.7083 11.0157 41.3098 10.9521 41.6482 10.767C41.803 10.6824 42.0868 10.4011 42.2378 10.1826C42.4252 9.91162 42.6382 9.4945 42.7099 9.25842C42.8142 8.91432 42.881 8.42573 42.8689 8.09356C42.8598 7.84227 42.8585 7.83713 42.7582 7.6787C42.7024 7.5905 42.649 7.4872 42.6396 7.44917C42.5773 7.19696 42.4586 7.1129 42.0506 7.03186C41.8603 6.99411 40.7931 6.98669 40.5557 7.02149C40.474 7.03348 40.3197 7.05484 40.2129 7.06897C39.8004 7.12352 39.3993 7.21341 39.0251 7.3351C38.5545 7.48814 38.3419 7.66397 38.223 7.99835C38.1449 8.21809 38.0873 8.29182 38.0294 8.24621C37.986 8.21203 37.8398 7.64046 37.5396 6.33135C37.4655 6.0081 37.3787 5.6451 37.3468 5.52467C37.3149 5.40425 37.2652 5.202 37.2364 5.07524C37.1702 4.78362 36.9252 3.96233 36.7965 3.60018C36.7425 3.44806 36.6434 3.20433 36.5765 3.05855C36.5095 2.91278 36.4193 2.71572 36.376 2.62065C36.0503 1.90572 35.625 1.38028 35.2059 1.17478C34.7221 0.9376 33.6161 0.672342 32.4896 0.523384C32.3827 0.509255 32.2625 0.492361 32.2224 0.485816C32.1824 0.479293 32.0512 0.464335 31.931 0.452604C31.8108 0.440849 31.625 0.420683 31.5181 0.407776C31.2209 0.371867 30.8078 0.334 30.0002 0.268636C28.9067 0.180109 26.9875 0.0842071 25.3735 0.03742C24.4072 0.0094169 18.2611 -0.014138 18.2356 0.0100622ZM23.5762 1.79009C24.9499 1.82234 25.6531 1.85043 27.0371 1.92836C28.4415 2.00743 30.3595 2.16411 30.9716 2.24978C31.2064 2.28265 31.4472 2.3151 31.6517 2.34144C31.7519 2.35435 32.0027 2.39683 32.209 2.43582C33.1532 2.61433 33.5836 2.76688 33.8121 3.00411C33.9861 3.18481 34.2329 3.65736 34.4846 4.29161C34.8661 5.25294 35.464 7.25347 35.8176 8.75137C35.8759 8.99856 35.9632 9.36156 36.0115 9.55805C36.0988 9.91271 36.2139 10.4093 36.3267 10.9179C36.359 11.0636 36.4076 11.2763 36.4346 11.3903C36.4936 11.6395 36.497 11.7324 36.4482 11.7708C36.4096 11.8012 36.2133 11.7942 35.8533 11.7498C35.4731 11.7029 35.2276 11.6744 35.0397 11.6554C34.9329 11.6446 34.7471 11.624 34.6268 11.6096C34.5066 11.5952 34.3263 11.5737 34.2261 11.5617C34.1259 11.5498 33.9456 11.5297 33.8254 11.5171C33.7051 11.5045 33.5248 11.4844 33.4246 11.4725C33.3244 11.4606 33.1441 11.4391 33.0239 11.4249C32.9037 11.4107 32.7233 11.3893 32.6232 11.3773C32.523 11.3654 32.3372 11.3447 32.2103 11.3314C32.0834 11.318 31.8921 11.2979 31.7853 11.2866C31.6784 11.2754 31.4817 11.2546 31.3481 11.2405C31.2145 11.2265 31.0178 11.2057 30.9109 11.1944C30.5534 11.1567 30.2327 11.1229 30.0244 11.101C29.8337 11.081 29.677 11.0657 29.0894 11.0101C28.9692 10.9987 28.7506 10.9778 28.6037 10.9638C28.3232 10.9369 28.021 10.9108 27.535 10.8718C27.3747 10.8589 27.1234 10.8381 26.9764 10.8257C26.8295 10.8132 26.5781 10.7925 26.4178 10.7796C26.2575 10.7667 26.0062 10.7459 25.8592 10.7333C25.4644 10.6995 24.5216 10.6308 23.9527 10.5943C22.4659 10.4991 21.7754 10.4751 20.5282 10.4753C19.3083 10.4756 18.0927 10.5138 16.7394 10.5943C16.5324 10.6066 16.1827 10.6274 15.9623 10.6405C15.3115 10.6792 14.3047 10.75 13.3271 10.8257C13.1668 10.8381 12.8936 10.8588 12.7199 10.8718C12.1616 10.9134 11.8522 10.9378 11.5542 10.9638C11.3939 10.9777 11.1534 10.9984 11.0199 11.0098C10.8863 11.0211 10.6568 11.0418 10.5098 11.0559C10.3629 11.07 10.1443 11.0909 10.0241 11.1023C9.43491 11.158 9.27884 11.1732 9.07689 11.1944C8.95667 11.2071 8.74902 11.2278 8.61544 11.2405C8.48186 11.2533 8.27967 11.2735 8.16613 11.2855C7.82616 11.3215 7.536 11.352 7.2918 11.3776C7.1649 11.3909 6.97364 11.4113 6.86677 11.4229C6.65669 11.4458 6.56321 11.4197 6.56316 11.338C6.56314 11.2705 6.88917 9.69225 7.04749 8.99337C7.50778 6.96177 7.79357 5.81614 8.04214 5.0061C8.25852 4.30092 8.28999 4.20267 8.38921 3.92285C8.58671 3.36578 8.77204 3.0066 8.92498 2.88447C9.19102 2.67204 9.94525 2.48291 11.1777 2.31957C11.2779 2.3063 11.3927 2.29009 11.4327 2.28355C11.4728 2.27702 11.6094 2.26147 11.7363 2.24898C11.8632 2.23648 12.0599 2.21639 12.1735 2.20431C12.5109 2.1684 13.0587 2.12277 13.8129 2.06773C14.1104 2.04599 14.3866 2.02686 15.1608 1.97431C16.323 1.89542 18.1636 1.82098 19.5608 1.79636C20.0907 1.78703 20.5329 1.77119 20.5434 1.76119C20.5648 1.74079 22.0997 1.75543 23.5762 1.79009ZM1.96568 19.6971C2.02977 19.7087 2.18059 19.7307 2.30081 19.746C2.68312 19.7948 3.85395 19.9872 4.17699 20.0543C4.27384 20.0745 4.43229 20.107 4.52915 20.1268C4.62601 20.1465 4.80906 20.1869 4.93596 20.2166C5.06286 20.2463 5.20775 20.2773 5.25793 20.2855C5.36693 20.3034 6.5134 20.5998 6.72105 20.6637C7.63029 20.9439 8.48565 21.3481 8.83988 21.6651C9.3969 22.1636 10.0196 23.2119 10.1773 23.9168C10.2737 24.3476 10.2842 24.4667 10.2429 24.6553C10.1862 24.9137 10.1651 24.961 10.0662 25.0508C9.8899 25.2111 9.69616 25.2688 9.45657 25.2323C9.27505 25.2047 8.85297 25.1425 8.34828 25.0692C7.45933 24.94 7.55198 24.9564 4.96024 24.4694C3.89829 24.2699 2.89828 24.084 2.73798 24.0564C2.11856 23.9497 1.93435 23.9147 1.87511 23.8925C1.76546 23.8513 1.74457 23.789 1.7248 23.4444C1.7146 23.2669 1.69485 22.9506 1.68089 22.7414C1.66695 22.5323 1.64543 22.2055 1.63309 22.0154C1.62075 21.8253 1.59882 21.5037 1.58435 21.3009C1.56987 21.0981 1.54809 20.7766 1.53592 20.5864C1.52378 20.3963 1.50653 20.1397 1.49762 20.0161C1.47593 19.7154 1.49995 19.676 1.70515 19.676C1.78433 19.676 1.90156 19.6855 1.96568 19.6971ZM41.1867 19.7338C41.2199 19.782 41.2239 19.8288 41.2104 20.0161C41.191 20.2848 41.1587 20.7804 41.1236 21.347C41.0994 21.7389 41.088 21.9149 41.0273 22.8336C41.0135 23.0428 40.994 23.3459 40.9839 23.5072C40.9682 23.7571 40.9582 23.8075 40.9162 23.8474C40.8663 23.8947 40.6899 23.9338 39.9821 24.0545C39.8152 24.083 38.8643 24.2592 37.8692 24.4462C35.5621 24.8797 35.0498 24.9707 34.3597 25.0698C33.947 25.129 33.4699 25.199 33.2496 25.2326C32.9848 25.273 32.7431 25.1854 32.5994 24.9971C32.4434 24.7928 32.4053 24.5392 32.4749 24.1691C32.5792 23.6149 32.8691 22.9413 33.213 22.4543C33.6123 21.889 33.8577 21.6336 34.2075 21.4195C34.6146 21.1703 35.3387 20.8628 35.9869 20.6639C36.1749 20.6063 37.1295 20.3574 37.3348 20.3125C37.4217 20.2936 37.6348 20.2469 37.8084 20.2089C38.4801 20.0618 38.5677 20.0438 38.7678 20.0114C38.8813 19.993 39.0835 19.9575 39.2171 19.9325C39.4821 19.8828 40.0924 19.7873 40.4193 19.7444C40.5328 19.7294 40.6695 19.7091 40.7229 19.6991C40.7763 19.6891 40.8935 19.6799 40.9834 19.6785C41.1324 19.6763 41.1503 19.6811 41.1867 19.7338Z" fill="#ABCFFF"/>
</svg>
