<svg width="43" height="43" viewBox="0 0 43 43" fill="none" xmlns="http://www.w3.org/2000/svg">
<path fill-rule="evenodd" clip-rule="evenodd" d="M21.2739 42.5479C33.0232 42.5479 42.5479 33.0232 42.5479 21.2739C42.5479 9.52466 33.0232 0 21.2739 0C9.52466 0 0 9.52466 0 21.2739C0 33.0232 9.52466 42.5479 21.2739 42.5479ZM16.1351 31.6744C17.3418 32.8008 19.1755 33.4102 21.6363 33.5026V36.2449H23.4464V33.4749C25.434 33.3271 27.0075 32.7362 28.1669 31.7021C29.3499 30.6494 29.9415 29.3752 29.9415 27.8794C29.9415 26.4574 29.551 25.2386 28.7702 24.2229C28.0131 23.1888 26.9246 22.1639 25.505 21.1482L23.0915 19.5139C22.1687 18.8675 21.4707 18.295 20.9975 17.7964C20.5479 17.2794 20.3231 16.6238 20.3231 15.8297C20.3231 15.3865 20.4651 14.9895 20.749 14.6386C21.0566 14.2692 21.4944 14.0846 22.0622 14.0846C22.7957 14.0661 23.269 14.3154 23.4819 14.8325C23.7185 15.3311 23.8605 16.1713 23.9078 17.3532L29.4091 16.8269C29.3381 15.128 28.8767 13.6783 28.0249 12.478C27.1967 11.2591 25.5641 10.5943 23.127 10.4835V7.87968H21.3169V10.5112C19.0927 10.6405 17.3418 11.213 16.0641 12.2286C14.81 13.2259 14.183 14.5924 14.183 16.3283C14.183 17.6395 14.5024 18.7198 15.1413 19.5693C15.8038 20.4187 16.7739 21.2867 18.0516 22.1731L20.5716 23.8628C21.6363 24.6015 22.4171 25.2848 22.914 25.9127C23.4346 26.5221 23.6949 27.2608 23.6949 28.1287C23.6949 29.2183 23.1625 29.763 22.0977 29.763C21.2696 29.763 20.6544 29.4583 20.2521 28.8489C19.8499 28.221 19.6369 27.1961 19.6133 25.7742L14.183 26.4113C14.2776 28.775 14.9283 30.5294 16.1351 31.6744Z" fill="#ABCFFF"/>
</svg>
