<svg width="43" height="43" viewBox="0 0 43 43" fill="none" xmlns="http://www.w3.org/2000/svg">
<path fill-rule="evenodd" clip-rule="evenodd" d="M21.2739 42.5479C33.0232 42.5479 42.5479 33.0232 42.5479 21.2739C42.5479 9.52466 33.0232 0 21.2739 0C9.52466 0 0 9.52466 0 21.2739C0 33.0232 9.52466 42.5479 21.2739 42.5479ZM7.87968 14.183H14.5542V16.3191H11.1619V19.8385H13.7474V22.0097H11.1619V26.247H14.5909V28.3656H7.87968V14.183ZM18.9049 20.7315L16.1544 14.183H19.2533L20.8852 18.0176L22.2055 14.183H24.9377L22.3338 21.5545L25.231 28.3656H22.1505L20.3351 24.1283L18.7399 28.3656H16.026L18.9049 20.7315ZM32.3392 14.183H27.3516V28.3656H30.6339V22.3424H31.9541C33.3111 22.3424 34.3624 22.0506 35.1081 21.4669C35.866 20.8716 36.2449 19.8152 36.2449 18.2977C36.2449 16.967 35.921 15.9514 35.2731 15.2511C34.6252 14.539 33.6472 14.183 32.3392 14.183ZM32.871 19.716C32.6876 20.0078 32.3087 20.1537 31.7341 20.1537H30.6339V16.3892H31.7158C32.3148 16.3892 32.706 16.5409 32.8893 16.8444C33.0727 17.1479 33.1644 17.6148 33.1644 18.2452C33.1644 18.9339 33.0666 19.4241 32.871 19.716Z" fill="#ABCFFF"/>
</svg>
